<?xml version="1.0" standalone="no"?>
<!DOCTYPE svg PUBLIC "-//W3C//DTD SVG 20010904//EN"
 "http://www.w3.org/TR/2001/REC-SVG-20010904/DTD/svg10.dtd">
<svg version="1.0" xmlns="http://www.w3.org/2000/svg"
 width="370.000000pt" height="333.000000pt" viewBox="0 0 370.000000 333.000000"
 preserveAspectRatio="xMidYMid meet">

<g transform="translate(0.000000,333.000000) scale(0.100000,-0.100000)"
fill="#000000" stroke="none">
<path d="M160 3288 c-89 -46 -135 -169 -97 -260 16 -38 254 -337 637 -798 52
-63 102 -123 110 -134 118 -146 240 -229 405 -276 116 -34 279 -32 390 3 135
43 220 93 313 187 44 43 348 452 582 780 29 41 45 68 35 60 -21 -17 -446 -493
-573 -642 -148 -173 -254 -241 -426 -274 -93 -17 -103 -17 -196 -1 -143 24
-235 70 -330 166 -42 42 -187 213 -323 381 -136 168 -303 373 -372 455 -139
167 -149 191 -95 224 27 16 67 19 408 25 207 3 421 9 475 13 l98 6 266 -264
c147 -145 278 -276 292 -291 14 -16 29 -28 34 -28 7 0 -64 91 -178 225 -23 28
-88 104 -143 170 -55 66 -129 154 -164 195 l-64 75 -119 6 c-66 4 -300 10
-520 14 l-400 7 -45 -24z"/>
<path d="M2407 3243 c-29 -38 -105 -133 -168 -213 -91 -114 -301 -383 -376
-480 -44 -57 -213 -258 -229 -271 -49 -42 -126 -72 -199 -77 -175 -11 -224 22
-465 315 -102 123 -192 232 -200 241 -9 9 -44 51 -78 92 -54 64 -60 76 -45 82
10 3 115 7 235 7 l216 1 59 -67 c32 -38 63 -72 69 -78 5 -5 56 -62 112 -126
97 -111 164 -178 112 -113 -137 172 -308 383 -325 400 -19 21 -31 22 -319 29
l-300 7 15 -20 c17 -25 57 -76 248 -322 350 -448 373 -472 489 -517 77 -30
224 -32 305 -4 114 39 153 77 434 414 96 117 185 223 197 237 28 33 241 293
289 353 l38 47 455 0 c479 0 501 -2 518 -45 13 -35 4 -54 -67 -140 -113 -139
-660 -814 -870 -1072 l-188 -233 408 -502 c224 -277 478 -590 565 -697 101
-123 158 -202 158 -216 0 -13 -9 -33 -19 -46 l-19 -24 -470 -3 -469 -4 -109
133 c-197 240 -238 289 -562 678 -152 182 -216 229 -358 258 -70 14 -84 14
-156 -1 -161 -32 -208 -72 -452 -386 -278 -357 -351 -451 -366 -472 l-15 -21
100 6 c55 4 190 7 301 7 l200 0 71 88 c39 48 123 152 187 232 110 136 85 118
-49 -35 -33 -38 -96 -109 -141 -159 l-80 -89 -219 2 c-121 1 -225 6 -233 10
-11 6 0 24 45 77 33 38 153 182 268 319 115 138 216 256 224 263 9 7 39 24 66
39 42 22 66 27 146 31 86 4 101 2 152 -22 87 -39 125 -78 331 -341 13 -16 80
-100 148 -187 67 -86 184 -234 258 -329 74 -95 146 -185 160 -200 l25 -28 505
-2 c461 -3 508 -1 545 15 81 35 124 102 125 194 0 64 -15 96 -89 187 -31 39
-223 277 -426 530 -203 253 -411 512 -462 575 -51 63 -93 117 -93 120 0 3 190
242 423 531 232 288 465 579 518 644 117 146 129 168 129 240 0 86 -52 167
-123 194 -19 7 -203 11 -542 11 l-514 0 -54 -67z"/>
<path d="M2807 2628 c-311 -309 -685 -711 -766 -824 -26 -37 -38 -110 -27
-169 9 -48 97 -155 354 -433 180 -194 531 -549 641 -647 l34 -30 -19 33 c-54
94 -479 644 -694 897 -89 105 -180 224 -180 236 0 4 78 102 173 216 365 439
773 973 744 973 -2 0 -119 -114 -260 -252z"/>
<path d="M1470 2516 c0 -2 8 -10 18 -17 15 -13 16 -12 3 4 -13 16 -21 21 -21
13z"/>
<path d="M1250 1569 c-107 -24 -248 -94 -322 -160 -71 -62 -824 -976 -860
-1042 -39 -72 -13 -196 53 -252 58 -48 100 -53 374 -45 138 5 372 12 520 16
l270 7 110 141 c61 77 161 208 224 291 62 82 128 168 146 190 75 94 63 92 -30
-5 -172 -179 -268 -281 -386 -409 l-114 -123 -140 7 c-77 4 -304 10 -503 14
l-364 6 -19 24 c-10 13 -19 33 -19 45 0 15 73 110 203 267 112 134 292 354
401 489 202 250 247 297 339 349 99 56 170 74 297 74 103 0 124 -3 203 -31 95
-33 186 -92 253 -164 22 -23 87 -104 145 -178 57 -74 135 -173 174 -221 38
-48 119 -148 179 -223 173 -217 168 -206 -109 219 -209 322 -312 470 -360 519
-97 99 -218 163 -367 197 -108 23 -187 23 -298 -2z"/>
<path d="M1494 888 l-19 -23 23 19 c21 18 27 26 19 26 -2 0 -12 -10 -23 -22z"/>
</g>
</svg>
